<svg xmlns="http://www.w3.org/2000/svg" xmlns:xlink="http://www.w3.org/1999/xlink" width="66" zoomAndPan="magnify" viewBox="0 0 49.5 51.749998" height="69" preserveAspectRatio="xMidYMid meet" version="1.0"><defs><clipPath id="38e9d7f42e"><path d="M 0 0.136719 L 48 0.136719 L 48 50.625 L 0 50.625 Z M 0 0.136719 " clip-rule="nonzero"/></clipPath></defs><g clip-path="url(#38e9d7f42e)"><path fill="#7f7f7f" d="M 29.65625 20.71875 L 21.738281 28.632812 L 17.746094 24.640625 C 17.5 24.394531 17.101562 24.394531 16.855469 24.640625 C 16.609375 24.882812 16.609375 25.285156 16.855469 25.527344 L 21.296875 29.96875 C 21.414062 30.085938 21.574219 30.152344 21.738281 30.152344 C 21.90625 30.152344 22.066406 30.085938 22.183594 29.96875 L 30.546875 21.605469 C 30.792969 21.363281 30.792969 20.964844 30.546875 20.71875 C 30.300781 20.472656 29.902344 20.472656 29.65625 20.71875 Z M 17.960938 6.109375 C 17.839844 6.300781 17.636719 6.40625 17.425781 6.40625 C 17.3125 6.40625 17.195312 6.375 17.09375 6.3125 C 16.796875 6.128906 16.707031 5.738281 16.894531 5.445312 L 18.023438 3.628906 C 14.175781 4.632812 10.671875 6.636719 7.832031 9.476562 C 3.59375 13.714844 1.257812 19.351562 1.257812 25.34375 C 1.257812 31.339844 3.59375 36.972656 7.832031 41.214844 C 11.027344 44.410156 15.054688 46.542969 19.472656 47.386719 C 19.816406 47.449219 20.039062 47.78125 19.972656 48.121094 C 19.914062 48.425781 19.652344 48.632812 19.355469 48.632812 C 19.316406 48.632812 19.277344 48.628906 19.238281 48.621094 C 14.570312 47.730469 10.316406 45.476562 6.941406 42.101562 C 2.464844 37.625 0 31.675781 0 25.34375 C 0 19.015625 2.464844 13.0625 6.941406 8.585938 C 9.945312 5.582031 13.648438 3.464844 17.722656 2.40625 L 15.929688 1.289062 C 15.636719 1.105469 15.546875 0.71875 15.730469 0.421875 C 15.820312 0.277344 15.960938 0.183594 16.113281 0.144531 L 16.414062 0.144531 C 16.476562 0.160156 16.539062 0.1875 16.597656 0.222656 L 19.6875 2.152344 C 19.828125 2.238281 19.929688 2.378906 19.96875 2.542969 C 20.003906 2.707031 19.976562 2.875 19.890625 3.019531 Z M 39.570312 9.476562 C 36.375 6.28125 32.347656 4.148438 27.929688 3.304688 C 27.585938 3.238281 27.363281 2.910156 27.429688 2.566406 C 27.492188 2.226562 27.824219 2.003906 28.164062 2.066406 C 32.832031 2.957031 37.085938 5.210938 40.457031 8.585938 C 44.933594 13.0625 47.398438 19.015625 47.398438 25.34375 C 47.398438 31.675781 44.933594 37.628906 40.457031 42.105469 C 37.4375 45.125 33.714844 47.246094 29.617188 48.300781 L 31.425781 49.507812 C 31.714844 49.703125 31.792969 50.09375 31.597656 50.382812 C 31.476562 50.5625 31.277344 50.660156 31.074219 50.660156 C 30.953125 50.660156 30.832031 50.625 30.726562 50.554688 L 27.695312 48.53125 C 27.40625 48.335938 27.332031 47.945312 27.523438 47.65625 L 29.550781 44.628906 C 29.742188 44.339844 30.132812 44.261719 30.421875 44.457031 C 30.710938 44.648438 30.789062 45.039062 30.59375 45.328125 L 29.449219 47.042969 C 33.269531 46.035156 36.746094 44.039062 39.570312 41.214844 C 48.320312 32.464844 48.320312 18.226562 39.570312 9.476562 Z M 23.699219 14.539062 C 29.65625 14.539062 34.503906 19.386719 34.503906 25.34375 C 34.503906 31.300781 29.65625 36.144531 23.699219 36.144531 C 17.742188 36.144531 12.898438 31.300781 12.898438 25.34375 C 12.898438 19.386719 17.742188 14.539062 23.699219 14.539062 Z M 29.492188 13.296875 C 29.988281 13.535156 30.539062 13.5 31 13.203125 L 33.769531 11.414062 C 33.886719 11.339844 34.023438 11.351562 34.121094 11.449219 L 37.59375 14.921875 C 37.691406 15.019531 37.703125 15.160156 37.628906 15.273438 L 35.839844 18.042969 C 35.539062 18.503906 35.507812 19.054688 35.746094 19.550781 C 35.960938 19.996094 36.152344 20.457031 36.316406 20.921875 C 36.496094 21.441406 36.910156 21.804688 37.445312 21.917969 L 40.667969 22.613281 C 40.804688 22.640625 40.894531 22.75 40.894531 22.886719 L 40.894531 27.796875 C 40.894531 27.933594 40.804688 28.042969 40.667969 28.074219 L 37.445312 28.765625 C 36.910156 28.878906 36.496094 29.242188 36.316406 29.761719 C 36.152344 30.226562 35.960938 30.6875 35.746094 31.132812 C 35.507812 31.628906 35.539062 32.175781 35.839844 32.640625 L 37.628906 35.410156 C 37.703125 35.527344 37.691406 35.664062 37.59375 35.761719 L 34.121094 39.234375 C 34.023438 39.332031 33.886719 39.34375 33.769531 39.269531 L 31 37.480469 C 30.535156 37.183594 29.988281 37.148438 29.492188 37.386719 C 29.046875 37.601562 28.585938 37.792969 28.121094 37.957031 C 27.601562 38.140625 27.238281 38.550781 27.121094 39.089844 L 26.429688 42.3125 C 26.402344 42.445312 26.292969 42.535156 26.15625 42.535156 L 21.246094 42.535156 C 21.109375 42.535156 21 42.445312 20.972656 42.3125 L 20.277344 39.089844 C 20.164062 38.550781 19.800781 38.140625 19.28125 37.957031 C 18.816406 37.792969 18.355469 37.601562 17.90625 37.386719 C 17.691406 37.28125 17.460938 37.230469 17.234375 37.230469 C 16.945312 37.230469 16.660156 37.3125 16.402344 37.480469 L 13.632812 39.269531 C 13.515625 39.347656 13.378906 39.332031 13.277344 39.234375 L 9.808594 35.761719 C 9.710938 35.664062 9.695312 35.527344 9.773438 35.410156 L 11.5625 32.640625 C 11.859375 32.179688 11.894531 31.628906 11.65625 31.136719 C 11.441406 30.6875 11.25 30.226562 11.085938 29.761719 C 10.90625 29.242188 10.492188 28.878906 9.957031 28.765625 L 6.734375 28.074219 C 6.597656 28.042969 6.507812 27.933594 6.507812 27.796875 L 6.507812 22.886719 C 6.507812 22.75 6.597656 22.640625 6.734375 22.613281 L 9.957031 21.917969 C 10.492188 21.804688 10.90625 21.441406 11.085938 20.921875 C 11.25 20.457031 11.441406 19.996094 11.65625 19.550781 C 11.894531 19.054688 11.859375 18.503906 11.5625 18.042969 L 9.773438 15.273438 C 9.695312 15.160156 9.710938 15.019531 9.808594 14.921875 L 13.277344 11.449219 C 13.378906 11.351562 13.515625 11.339844 13.632812 11.414062 L 16.402344 13.203125 C 16.863281 13.503906 17.414062 13.535156 17.90625 13.296875 C 18.355469 13.082031 18.816406 12.890625 19.28125 12.726562 C 19.800781 12.546875 20.164062 12.132812 20.277344 11.597656 L 20.972656 8.375 C 21 8.238281 21.109375 8.152344 21.246094 8.152344 L 26.15625 8.152344 C 26.292969 8.152344 26.402344 8.238281 26.429688 8.375 L 27.121094 11.597656 C 27.238281 12.132812 27.601562 12.546875 28.121094 12.726562 C 28.585938 12.890625 29.046875 13.082031 29.492188 13.296875 Z M 29.492188 13.296875 " fill-opacity="1" fill-rule="evenodd"/><path fill="#7f7f7f" d="M 29.65625 20.71875 L 21.738281 28.632812 L 17.746094 24.640625 C 17.5 24.394531 17.101562 24.394531 16.855469 24.640625 C 16.609375 24.882812 16.609375 25.285156 16.855469 25.527344 L 21.296875 29.96875 C 21.414062 30.085938 21.574219 30.152344 21.738281 30.152344 C 21.90625 30.152344 22.066406 30.085938 22.183594 29.96875 L 30.546875 21.605469 C 30.792969 21.363281 30.792969 20.964844 30.546875 20.71875 C 30.300781 20.472656 29.902344 20.472656 29.65625 20.71875 Z M 17.960938 6.109375 C 17.839844 6.300781 17.636719 6.40625 17.425781 6.40625 C 17.3125 6.40625 17.195312 6.375 17.09375 6.3125 C 16.796875 6.128906 16.707031 5.738281 16.894531 5.445312 L 18.023438 3.628906 C 14.175781 4.632812 10.671875 6.636719 7.832031 9.476562 C 3.59375 13.714844 1.257812 19.351562 1.257812 25.34375 C 1.257812 31.339844 3.59375 36.972656 7.832031 41.214844 C 11.027344 44.410156 15.054688 46.542969 19.472656 47.386719 C 19.816406 47.449219 20.039062 47.78125 19.972656 48.121094 C 19.914062 48.425781 19.652344 48.632812 19.355469 48.632812 C 19.316406 48.632812 19.277344 48.628906 19.238281 48.621094 C 14.570312 47.730469 10.316406 45.476562 6.941406 42.101562 C 2.464844 37.625 0 31.675781 0 25.34375 C 0 19.015625 2.464844 13.0625 6.941406 8.585938 C 9.945312 5.582031 13.648438 3.464844 17.722656 2.40625 L 15.929688 1.289062 C 15.636719 1.105469 15.546875 0.71875 15.730469 0.421875 C 15.820312 0.277344 15.960938 0.183594 16.113281 0.144531 L 16.414062 0.144531 C 16.476562 0.160156 16.539062 0.1875 16.597656 0.222656 L 19.6875 2.152344 C 19.828125 2.238281 19.929688 2.378906 19.96875 2.542969 C 20.003906 2.707031 19.976562 2.875 19.890625 3.019531 Z M 39.570312 9.476562 C 36.375 6.28125 32.347656 4.148438 27.929688 3.304688 C 27.585938 3.238281 27.363281 2.910156 27.429688 2.566406 C 27.492188 2.226562 27.824219 2.003906 28.164062 2.066406 C 32.832031 2.957031 37.085938 5.210938 40.457031 8.585938 C 44.933594 13.0625 47.398438 19.015625 47.398438 25.34375 C 47.398438 31.675781 44.933594 37.628906 40.457031 42.105469 C 37.4375 45.125 33.714844 47.246094 29.617188 48.300781 L 31.425781 49.507812 C 31.714844 49.703125 31.792969 50.09375 31.597656 50.382812 C 31.476562 50.5625 31.277344 50.660156 31.074219 50.660156 C 30.953125 50.660156 30.832031 50.625 30.726562 50.554688 L 27.695312 48.53125 C 27.40625 48.335938 27.332031 47.945312 27.523438 47.65625 L 29.550781 44.628906 C 29.742188 44.339844 30.132812 44.261719 30.421875 44.457031 C 30.710938 44.648438 30.789062 45.039062 30.59375 45.328125 L 29.449219 47.042969 C 33.269531 46.035156 36.746094 44.039062 39.570312 41.214844 C 48.320312 32.464844 48.320312 18.226562 39.570312 9.476562 Z M 23.699219 14.539062 C 29.65625 14.539062 34.503906 19.386719 34.503906 25.34375 C 34.503906 31.300781 29.65625 36.144531 23.699219 36.144531 C 17.742188 36.144531 12.898438 31.300781 12.898438 25.34375 C 12.898438 19.386719 17.742188 14.539062 23.699219 14.539062 Z M 29.492188 13.296875 C 29.988281 13.535156 30.539062 13.5 31 13.203125 L 33.769531 11.414062 C 33.886719 11.339844 34.023438 11.351562 34.121094 11.449219 L 37.59375 14.921875 C 37.691406 15.019531 37.703125 15.160156 37.628906 15.273438 L 35.839844 18.042969 C 35.539062 18.503906 35.507812 19.054688 35.746094 19.550781 C 35.960938 19.996094 36.152344 20.457031 36.316406 20.921875 C 36.496094 21.441406 36.910156 21.804688 37.445312 21.917969 L 40.667969 22.613281 C 40.804688 22.640625 40.894531 22.75 40.894531 22.886719 L 40.894531 27.796875 C 40.894531 27.933594 40.804688 28.042969 40.667969 28.074219 L 37.445312 28.765625 C 36.910156 28.878906 36.496094 29.242188 36.316406 29.761719 C 36.152344 30.226562 35.960938 30.6875 35.746094 31.132812 C 35.507812 31.628906 35.539062 32.175781 35.839844 32.640625 L 37.628906 35.410156 C 37.703125 35.527344 37.691406 35.664062 37.59375 35.761719 L 34.121094 39.234375 C 34.023438 39.332031 33.886719 39.34375 33.769531 39.269531 L 31 37.480469 C 30.535156 37.183594 29.988281 37.148438 29.492188 37.386719 C 29.046875 37.601562 28.585938 37.792969 28.121094 37.957031 C 27.601562 38.140625 27.238281 38.550781 27.121094 39.089844 L 26.429688 42.3125 C 26.402344 42.445312 26.292969 42.535156 26.15625 42.535156 L 21.246094 42.535156 C 21.109375 42.535156 21 42.445312 20.972656 42.3125 L 20.277344 39.089844 C 20.164062 38.550781 19.800781 38.140625 19.28125 37.957031 C 18.816406 37.792969 18.355469 37.601562 17.90625 37.386719 C 17.691406 37.28125 17.460938 37.230469 17.234375 37.230469 C 16.945312 37.230469 16.660156 37.3125 16.402344 37.480469 L 13.632812 39.269531 C 13.515625 39.347656 13.378906 39.332031 13.277344 39.234375 L 9.808594 35.761719 C 9.710938 35.664062 9.695312 35.527344 9.773438 35.410156 L 11.5625 32.640625 C 11.859375 32.179688 11.894531 31.628906 11.65625 31.136719 C 11.441406 30.6875 11.25 30.226562 11.085938 29.761719 C 10.90625 29.242188 10.492188 28.878906 9.957031 28.765625 L 6.734375 28.074219 C 6.597656 28.042969 6.507812 27.933594 6.507812 27.796875 L 6.507812 22.886719 C 6.507812 22.75 6.597656 22.640625 6.734375 22.613281 L 9.957031 21.917969 C 10.492188 21.804688 10.90625 21.441406 11.085938 20.921875 C 11.25 20.457031 11.441406 19.996094 11.65625 19.550781 C 11.894531 19.054688 11.859375 18.503906 11.5625 18.042969 L 9.773438 15.273438 C 9.695312 15.160156 9.710938 15.019531 9.808594 14.921875 L 13.277344 11.449219 C 13.378906 11.351562 13.515625 11.339844 13.632812 11.414062 L 16.402344 13.203125 C 16.863281 13.503906 17.414062 13.535156 17.90625 13.296875 C 18.355469 13.082031 18.816406 12.890625 19.28125 12.726562 C 19.800781 12.546875 20.164062 12.132812 20.277344 11.597656 L 20.972656 8.375 C 21 8.238281 21.109375 8.152344 21.246094 8.152344 L 26.15625 8.152344 C 26.292969 8.152344 26.402344 8.238281 26.429688 8.375 L 27.121094 11.597656 C 27.238281 12.132812 27.601562 12.546875 28.121094 12.726562 C 28.585938 12.890625 29.046875 13.082031 29.492188 13.296875 Z M 29.492188 13.296875 " fill-opacity="1" fill-rule="evenodd"/></g></svg>