<svg xmlns="http://www.w3.org/2000/svg" xmlns:xlink="http://www.w3.org/1999/xlink" width="51" zoomAndPan="magnify" viewBox="0 0 38.25 37.499999" height="50" preserveAspectRatio="xMidYMid meet" version="1.0"><defs><clipPath id="97c7d746cf"><path d="M 0 0.117188 L 37.515625 0.117188 L 37.515625 36.160156 L 0 36.160156 Z M 0 0.117188 " clip-rule="nonzero"/></clipPath></defs><g clip-path="url(#97c7d746cf)"><path fill="#7f7f7f" d="M 17.539062 19.460938 L 1.300781 19.460938 C 1.128906 19.460938 0.964844 19.429688 0.804688 19.363281 C 0.648438 19.296875 0.507812 19.203125 0.386719 19.082031 C 0.265625 18.960938 0.175781 18.824219 0.109375 18.664062 C 0.0429688 18.507812 0.0117188 18.34375 0.0117188 18.171875 C 0.0117188 18 0.0429688 17.835938 0.109375 17.679688 C 0.175781 17.519531 0.265625 17.378906 0.386719 17.257812 C 0.507812 17.136719 0.648438 17.046875 0.804688 16.980469 C 0.964844 16.914062 1.128906 16.882812 1.300781 16.882812 L 17.539062 16.882812 L 13.28125 12.636719 C 13.160156 12.515625 13.066406 12.378906 13 12.21875 C 12.933594 12.058594 12.902344 11.894531 12.902344 11.722656 C 12.902344 11.550781 12.933594 11.386719 13 11.226562 C 13.066406 11.070312 13.160156 10.929688 13.28125 10.808594 C 13.402344 10.6875 13.542969 10.59375 13.703125 10.527344 C 13.859375 10.460938 14.027344 10.429688 14.195312 10.429688 C 14.367188 10.429688 14.535156 10.460938 14.691406 10.527344 C 14.851562 10.59375 14.992188 10.6875 15.113281 10.808594 L 21.5625 17.253906 C 21.679688 17.378906 21.769531 17.523438 21.832031 17.679688 C 21.964844 18.007812 21.964844 18.335938 21.832031 18.660156 C 21.769531 18.820312 21.679688 18.964844 21.5625 19.085938 L 15.113281 25.535156 C 14.992188 25.65625 14.851562 25.753906 14.691406 25.816406 C 14.535156 25.882812 14.371094 25.917969 14.195312 25.917969 C 14.023438 25.917969 13.859375 25.882812 13.703125 25.816406 C 13.542969 25.753906 13.402344 25.65625 13.28125 25.535156 C 13.160156 25.414062 13.066406 25.273438 13 25.117188 C 12.933594 24.957031 12.898438 24.792969 12.898438 24.621094 C 12.898438 24.449219 12.933594 24.28125 13 24.125 C 13.066406 23.964844 13.160156 23.824219 13.28125 23.703125 Z M 33.542969 0.117188 L 12.90625 0.117188 C 12.394531 0.117188 11.902344 0.214844 11.425781 0.410156 C 10.953125 0.605469 10.535156 0.886719 10.171875 1.25 C 9.808594 1.613281 9.527344 2.03125 9.332031 2.503906 C 9.136719 2.976562 9.039062 3.472656 9.039062 3.984375 L 9.039062 13.011719 C 9.039062 13.183594 9.070312 13.347656 9.136719 13.507812 C 9.203125 13.664062 9.296875 13.804688 9.417969 13.925781 C 9.535156 14.046875 9.675781 14.140625 9.835938 14.203125 C 9.992188 14.269531 10.15625 14.300781 10.328125 14.300781 C 10.5 14.300781 10.664062 14.269531 10.820312 14.203125 C 10.980469 14.140625 11.117188 14.046875 11.238281 13.925781 C 11.359375 13.804688 11.453125 13.664062 11.519531 13.507812 C 11.585938 13.347656 11.617188 13.183594 11.617188 13.011719 L 11.617188 3.984375 C 11.617188 3.8125 11.652344 3.648438 11.714844 3.492188 C 11.78125 3.332031 11.875 3.195312 11.996094 3.074219 C 12.117188 2.953125 12.257812 2.859375 12.414062 2.792969 C 12.570312 2.726562 12.738281 2.695312 12.90625 2.695312 L 33.542969 2.695312 C 33.714844 2.695312 33.878906 2.726562 34.035156 2.792969 C 34.195312 2.859375 34.335938 2.953125 34.453125 3.074219 C 34.574219 3.195312 34.667969 3.332031 34.734375 3.492188 C 34.800781 3.648438 34.832031 3.8125 34.832031 3.984375 L 34.832031 32.359375 C 34.832031 32.53125 34.800781 32.695312 34.734375 32.851562 C 34.667969 33.011719 34.574219 33.148438 34.453125 33.269531 C 34.335938 33.390625 34.195312 33.484375 34.035156 33.550781 C 33.878906 33.617188 33.714844 33.648438 33.542969 33.648438 L 12.90625 33.648438 C 12.738281 33.648438 12.570312 33.617188 12.414062 33.550781 C 12.257812 33.484375 12.117188 33.390625 11.996094 33.269531 C 11.875 33.148438 11.78125 33.011719 11.714844 32.851562 C 11.652344 32.695312 11.617188 32.53125 11.617188 32.359375 L 11.617188 23.332031 C 11.617188 23.160156 11.585938 22.996094 11.519531 22.835938 C 11.453125 22.679688 11.359375 22.539062 11.238281 22.417969 C 11.117188 22.296875 10.980469 22.203125 10.820312 22.140625 C 10.664062 22.074219 10.5 22.039062 10.328125 22.039062 C 10.15625 22.039062 9.992188 22.074219 9.835938 22.140625 C 9.675781 22.203125 9.535156 22.296875 9.417969 22.417969 C 9.296875 22.539062 9.203125 22.679688 9.136719 22.835938 C 9.070312 22.996094 9.039062 23.160156 9.039062 23.332031 L 9.039062 32.359375 C 9.039062 32.871094 9.136719 33.363281 9.332031 33.839844 C 9.527344 34.3125 9.808594 34.730469 10.171875 35.09375 C 10.535156 35.457031 10.953125 35.738281 11.425781 35.933594 C 11.902344 36.128906 12.394531 36.226562 12.90625 36.226562 L 33.542969 36.226562 C 34.054688 36.226562 34.550781 36.128906 35.023438 35.933594 C 35.496094 35.738281 35.917969 35.457031 36.277344 35.09375 C 36.640625 34.730469 36.921875 34.3125 37.117188 33.839844 C 37.3125 33.363281 37.414062 32.871094 37.414062 32.359375 L 37.414062 3.984375 C 37.414062 3.472656 37.3125 2.976562 37.117188 2.503906 C 36.921875 2.03125 36.640625 1.613281 36.277344 1.25 C 35.917969 0.886719 35.496094 0.605469 35.023438 0.410156 C 34.550781 0.214844 34.054688 0.117188 33.542969 0.117188 Z M 33.542969 0.117188 " fill-opacity="1" fill-rule="nonzero"/><path fill="#7f7f7f" d="M 17.539062 19.460938 L 1.300781 19.460938 C 1.128906 19.460938 0.964844 19.429688 0.804688 19.363281 C 0.648438 19.296875 0.507812 19.203125 0.386719 19.082031 C 0.265625 18.960938 0.175781 18.824219 0.109375 18.664062 C 0.0429688 18.507812 0.0117188 18.34375 0.0117188 18.171875 C 0.0117188 18 0.0429688 17.835938 0.109375 17.679688 C 0.175781 17.519531 0.265625 17.378906 0.386719 17.257812 C 0.507812 17.136719 0.648438 17.046875 0.804688 16.980469 C 0.964844 16.914062 1.128906 16.882812 1.300781 16.882812 L 17.539062 16.882812 L 13.28125 12.636719 C 13.160156 12.515625 13.066406 12.378906 13 12.21875 C 12.933594 12.058594 12.902344 11.894531 12.902344 11.722656 C 12.902344 11.550781 12.933594 11.386719 13 11.226562 C 13.066406 11.070312 13.160156 10.929688 13.28125 10.808594 C 13.402344 10.6875 13.542969 10.59375 13.703125 10.527344 C 13.859375 10.460938 14.027344 10.429688 14.195312 10.429688 C 14.367188 10.429688 14.535156 10.460938 14.691406 10.527344 C 14.851562 10.59375 14.992188 10.6875 15.113281 10.808594 L 21.5625 17.253906 C 21.679688 17.378906 21.769531 17.523438 21.832031 17.679688 C 21.964844 18.007812 21.964844 18.335938 21.832031 18.660156 C 21.769531 18.820312 21.679688 18.964844 21.5625 19.085938 L 15.113281 25.535156 C 14.992188 25.65625 14.851562 25.753906 14.691406 25.816406 C 14.535156 25.882812 14.371094 25.917969 14.195312 25.917969 C 14.023438 25.917969 13.859375 25.882812 13.703125 25.816406 C 13.542969 25.753906 13.402344 25.65625 13.28125 25.535156 C 13.160156 25.414062 13.066406 25.273438 13 25.117188 C 12.933594 24.957031 12.898438 24.792969 12.898438 24.621094 C 12.898438 24.449219 12.933594 24.28125 13 24.125 C 13.066406 23.964844 13.160156 23.824219 13.28125 23.703125 Z M 33.542969 0.117188 L 12.90625 0.117188 C 12.394531 0.117188 11.902344 0.214844 11.425781 0.410156 C 10.953125 0.605469 10.535156 0.886719 10.171875 1.25 C 9.808594 1.613281 9.527344 2.03125 9.332031 2.503906 C 9.136719 2.976562 9.039062 3.472656 9.039062 3.984375 L 9.039062 13.011719 C 9.039062 13.183594 9.070312 13.347656 9.136719 13.507812 C 9.203125 13.664062 9.296875 13.804688 9.417969 13.925781 C 9.535156 14.046875 9.675781 14.140625 9.835938 14.203125 C 9.992188 14.269531 10.15625 14.300781 10.328125 14.300781 C 10.5 14.300781 10.664062 14.269531 10.820312 14.203125 C 10.980469 14.140625 11.117188 14.046875 11.238281 13.925781 C 11.359375 13.804688 11.453125 13.664062 11.519531 13.507812 C 11.585938 13.347656 11.617188 13.183594 11.617188 13.011719 L 11.617188 3.984375 C 11.617188 3.8125 11.652344 3.648438 11.714844 3.492188 C 11.78125 3.332031 11.875 3.195312 11.996094 3.074219 C 12.117188 2.953125 12.257812 2.859375 12.414062 2.792969 C 12.570312 2.726562 12.738281 2.695312 12.90625 2.695312 L 33.542969 2.695312 C 33.714844 2.695312 33.878906 2.726562 34.035156 2.792969 C 34.195312 2.859375 34.335938 2.953125 34.453125 3.074219 C 34.574219 3.195312 34.667969 3.332031 34.734375 3.492188 C 34.800781 3.648438 34.832031 3.8125 34.832031 3.984375 L 34.832031 32.359375 C 34.832031 32.53125 34.800781 32.695312 34.734375 32.851562 C 34.667969 33.011719 34.574219 33.148438 34.453125 33.269531 C 34.335938 33.390625 34.195312 33.484375 34.035156 33.550781 C 33.878906 33.617188 33.714844 33.648438 33.542969 33.648438 L 12.90625 33.648438 C 12.738281 33.648438 12.570312 33.617188 12.414062 33.550781 C 12.257812 33.484375 12.117188 33.390625 11.996094 33.269531 C 11.875 33.148438 11.78125 33.011719 11.714844 32.851562 C 11.652344 32.695312 11.617188 32.53125 11.617188 32.359375 L 11.617188 23.332031 C 11.617188 23.160156 11.585938 22.996094 11.519531 22.835938 C 11.453125 22.679688 11.359375 22.539062 11.238281 22.417969 C 11.117188 22.296875 10.980469 22.203125 10.820312 22.140625 C 10.664062 22.074219 10.5 22.039062 10.328125 22.039062 C 10.15625 22.039062 9.992188 22.074219 9.835938 22.140625 C 9.675781 22.203125 9.535156 22.296875 9.417969 22.417969 C 9.296875 22.539062 9.203125 22.679688 9.136719 22.835938 C 9.070312 22.996094 9.039062 23.160156 9.039062 23.332031 L 9.039062 32.359375 C 9.039062 32.871094 9.136719 33.363281 9.332031 33.839844 C 9.527344 34.3125 9.808594 34.730469 10.171875 35.09375 C 10.535156 35.457031 10.953125 35.738281 11.425781 35.933594 C 11.902344 36.128906 12.394531 36.226562 12.90625 36.226562 L 33.542969 36.226562 C 34.054688 36.226562 34.550781 36.128906 35.023438 35.933594 C 35.496094 35.738281 35.917969 35.457031 36.277344 35.09375 C 36.640625 34.730469 36.921875 34.3125 37.117188 33.839844 C 37.3125 33.363281 37.414062 32.871094 37.414062 32.359375 L 37.414062 3.984375 C 37.414062 3.472656 37.3125 2.976562 37.117188 2.503906 C 36.921875 2.03125 36.640625 1.613281 36.277344 1.25 C 35.917969 0.886719 35.496094 0.605469 35.023438 0.410156 C 34.550781 0.214844 34.054688 0.117188 33.542969 0.117188 Z M 33.542969 0.117188 " fill-opacity="1" fill-rule="nonzero"/></g></svg>