<svg xmlns="http://www.w3.org/2000/svg" xmlns:xlink="http://www.w3.org/1999/xlink" width="74" zoomAndPan="magnify" viewBox="0 0 55.5 55.499996" height="74" preserveAspectRatio="xMidYMid meet" version="1.0"><path fill="#7f7f7f" d="M 29.039062 33.738281 C 29.496094 32.855469 29.742188 31.867188 29.742188 30.855469 C 29.742188 30.4375 29.703125 30.023438 29.621094 29.617188 C 28.425781 29.375 27.320312 28.789062 26.449219 27.917969 C 25.28125 26.746094 24.625 25.164062 24.625 23.511719 C 24.625 21.855469 25.28125 20.273438 26.449219 19.101562 L 35.261719 10.289062 C 36.433594 9.121094 38.015625 8.464844 39.671875 8.464844 C 41.324219 8.464844 42.90625 9.121094 44.078125 10.289062 C 45.246094 11.457031 45.902344 13.042969 45.902344 14.695312 C 45.902344 16.347656 45.246094 17.933594 44.078125 19.101562 L 35.261719 27.917969 C 34.808594 28.371094 34.292969 28.746094 33.738281 29.035156 C 33.84375 29.632812 33.898438 30.242188 33.898438 30.855469 C 33.898438 31.769531 33.777344 32.671875 33.542969 33.542969 C 35.289062 33.074219 36.902344 32.15625 38.199219 30.855469 L 47.015625 22.042969 C 48.964844 20.09375 50.058594 17.449219 50.054688 14.695312 C 50.058594 11.941406 48.964844 9.300781 47.015625 7.351562 C 45.066406 5.402344 42.425781 4.308594 39.667969 4.308594 C 36.914062 4.308594 34.273438 5.402344 32.324219 7.351562 L 23.511719 16.164062 C 21.5625 18.113281 20.46875 20.753906 20.46875 23.507812 C 20.46875 26.265625 21.5625 28.90625 23.511719 30.855469 C 25.023438 32.367188 26.957031 33.367188 29.039062 33.738281 Z M 29.039062 33.738281 " fill-opacity="1" fill-rule="evenodd"/><path fill="#7f7f7f" d="M 25.332031 20.628906 C 24.871094 21.507812 24.621094 22.496094 24.625 23.507812 C 24.625 23.929688 24.664062 24.34375 24.746094 24.746094 C 25.941406 24.988281 27.042969 25.574219 27.917969 26.449219 C 29.085938 27.617188 29.742188 29.203125 29.742188 30.855469 C 29.742188 32.507812 29.085938 34.09375 27.917969 35.261719 L 19.105469 44.078125 C 17.9375 45.246094 16.347656 45.902344 14.699219 45.902344 C 13.042969 45.902344 11.457031 45.246094 10.289062 44.078125 C 9.121094 42.90625 8.464844 41.320312 8.464844 39.667969 C 8.464844 38.015625 9.121094 36.429688 10.289062 35.261719 L 19.105469 26.449219 C 19.558594 25.996094 20.070312 25.621094 20.628906 25.328125 C 20.523438 24.734375 20.46875 24.125 20.46875 23.511719 C 20.46875 22.59375 20.589844 21.691406 20.820312 20.820312 C 19.074219 21.289062 17.46875 22.210938 16.167969 23.511719 L 7.351562 32.324219 C 5.40625 34.273438 4.308594 36.914062 4.308594 39.667969 C 4.308594 42.425781 5.402344 45.066406 7.351562 47.015625 C 9.300781 48.960938 11.941406 50.054688 14.695312 50.054688 C 17.453125 50.058594 20.09375 48.960938 22.042969 47.015625 L 30.855469 38.199219 C 32.804688 36.253906 33.898438 33.609375 33.898438 30.855469 C 33.898438 28.097656 32.804688 25.457031 30.855469 23.511719 C 29.34375 21.996094 27.410156 20.996094 25.332031 20.628906 Z M 25.332031 20.628906 " fill-opacity="1" fill-rule="evenodd"/><path fill="#7f7f7f" d="M 29.039062 33.738281 C 29.496094 32.855469 29.742188 31.867188 29.742188 30.855469 C 29.742188 30.4375 29.703125 30.023438 29.621094 29.617188 C 28.425781 29.375 27.320312 28.789062 26.449219 27.917969 C 25.28125 26.746094 24.625 25.164062 24.625 23.511719 C 24.625 21.855469 25.28125 20.273438 26.449219 19.101562 L 35.261719 10.289062 C 36.433594 9.121094 38.015625 8.464844 39.671875 8.464844 C 41.324219 8.464844 42.90625 9.121094 44.078125 10.289062 C 45.246094 11.457031 45.902344 13.042969 45.902344 14.695312 C 45.902344 16.347656 45.246094 17.933594 44.078125 19.101562 L 35.261719 27.917969 C 34.808594 28.371094 34.292969 28.746094 33.738281 29.035156 C 33.84375 29.632812 33.898438 30.242188 33.898438 30.855469 C 33.898438 31.769531 33.777344 32.671875 33.542969 33.542969 C 35.289062 33.074219 36.902344 32.15625 38.199219 30.855469 L 47.015625 22.042969 C 48.964844 20.09375 50.058594 17.449219 50.054688 14.695312 C 50.058594 11.941406 48.964844 9.300781 47.015625 7.351562 C 45.066406 5.402344 42.425781 4.308594 39.667969 4.308594 C 36.914062 4.308594 34.273438 5.402344 32.324219 7.351562 L 23.511719 16.164062 C 21.5625 18.113281 20.46875 20.753906 20.46875 23.507812 C 20.46875 26.265625 21.5625 28.90625 23.511719 30.855469 C 25.023438 32.367188 26.957031 33.367188 29.039062 33.738281 Z M 29.039062 33.738281 " fill-opacity="1" fill-rule="evenodd"/><path fill="#7f7f7f" d="M 25.332031 20.628906 C 24.871094 21.507812 24.621094 22.496094 24.625 23.507812 C 24.625 23.929688 24.664062 24.34375 24.746094 24.746094 C 25.941406 24.988281 27.042969 25.574219 27.917969 26.449219 C 29.085938 27.617188 29.742188 29.203125 29.742188 30.855469 C 29.742188 32.507812 29.085938 34.09375 27.917969 35.261719 L 19.105469 44.078125 C 17.9375 45.246094 16.347656 45.902344 14.699219 45.902344 C 13.042969 45.902344 11.457031 45.246094 10.289062 44.078125 C 9.121094 42.90625 8.464844 41.320312 8.464844 39.667969 C 8.464844 38.015625 9.121094 36.429688 10.289062 35.261719 L 19.105469 26.449219 C 19.558594 25.996094 20.070312 25.621094 20.628906 25.328125 C 20.523438 24.734375 20.46875 24.125 20.46875 23.511719 C 20.46875 22.59375 20.589844 21.691406 20.820312 20.820312 C 19.074219 21.289062 17.46875 22.210938 16.167969 23.511719 L 7.351562 32.324219 C 5.40625 34.273438 4.308594 36.914062 4.308594 39.667969 C 4.308594 42.425781 5.402344 45.066406 7.351562 47.015625 C 9.300781 48.960938 11.941406 50.054688 14.695312 50.054688 C 17.453125 50.058594 20.09375 48.960938 22.042969 47.015625 L 30.855469 38.199219 C 32.804688 36.253906 33.898438 33.609375 33.898438 30.855469 C 33.898438 28.097656 32.804688 25.457031 30.855469 23.511719 C 29.34375 21.996094 27.410156 20.996094 25.332031 20.628906 Z M 25.332031 20.628906 " fill-opacity="1" fill-rule="evenodd"/></svg>