<svg xmlns="http://www.w3.org/2000/svg" xmlns:xlink="http://www.w3.org/1999/xlink" width="331" zoomAndPan="magnify" viewBox="0 0 248.25 116.999995" height="156" preserveAspectRatio="xMidYMid meet" version="1.0"><defs><g/><clipPath id="157f18f4de"><path d="M 1 38.207031 L 29 38.207031 L 29 74 L 1 74 Z M 1 38.207031 " clip-rule="nonzero"/></clipPath><clipPath id="8dd8a501dc"><path d="M 0 71 L 30.65625 71 L 30.65625 77.835938 L 0 77.835938 Z M 0 71 " clip-rule="nonzero"/></clipPath></defs><path fill="#5d8bb8" d="M 27.203125 64.617188 L 3.15625 64.617188 L 3.363281 59.960938 L 27 59.960938 Z M 27.203125 64.617188 " fill-opacity="1" fill-rule="nonzero"/><g clip-path="url(#157f18f4de)"><path fill="#5d8bb8" d="M 28.386719 72.347656 C 27.171875 49.238281 27.792969 61.386719 26.832031 43.617188 C 26.820312 40.632812 24.386719 38.207031 21.394531 38.207031 L 8.964844 38.207031 C 5.976562 38.207031 3.542969 40.632812 3.53125 43.621094 C 2.261719 66.957031 3.179688 49.464844 1.976562 72.347656 C 1.953125 72.773438 2.28125 73.140625 2.707031 73.160156 C 3.132812 73.183594 3.5 72.855469 3.523438 72.429688 L 3.6875 69.277344 L 26.671875 69.277344 L 26.839844 72.429688 C 26.863281 72.855469 27.226562 73.183594 27.652344 73.160156 C 28.078125 73.140625 28.40625 72.773438 28.386719 72.347656 Z M 5.078125 43.640625 C 5.078125 41.496094 6.820312 39.753906 8.964844 39.753906 L 21.394531 39.753906 C 23.539062 39.753906 25.285156 41.496094 25.285156 43.640625 L 26.386719 63.84375 L 3.972656 63.84375 Z M 3.769531 67.730469 L 3.890625 65.394531 L 26.46875 65.394531 L 26.59375 67.730469 Z M 3.769531 67.730469 " fill-opacity="1" fill-rule="nonzero"/></g><path fill="#5d8bb8" d="M 19.070312 49.855469 C 19.070312 51.140625 20.113281 52.183594 21.394531 52.183594 C 22.679688 52.183594 23.722656 51.140625 23.722656 49.855469 C 23.722656 48.574219 22.679688 47.527344 21.394531 47.527344 C 20.113281 47.527344 19.070312 48.574219 19.070312 49.855469 Z M 21.394531 49.078125 C 21.828125 49.078125 22.175781 49.425781 22.175781 49.855469 C 22.175781 50.285156 21.828125 50.636719 21.394531 50.636719 C 20.964844 50.636719 20.617188 50.285156 20.617188 49.855469 C 20.617188 49.425781 20.964844 49.078125 21.394531 49.078125 Z M 21.394531 49.078125 " fill-opacity="1" fill-rule="nonzero"/><path fill="#5d8bb8" d="M 19.066406 45.96875 C 20.347656 45.96875 21.394531 44.925781 21.394531 43.640625 C 21.394531 42.359375 20.347656 41.3125 19.066406 41.3125 C 17.78125 41.3125 16.738281 42.359375 16.738281 43.640625 C 16.738281 44.925781 17.78125 45.96875 19.066406 45.96875 Z M 19.066406 42.859375 C 19.496094 42.859375 19.84375 43.210938 19.84375 43.640625 C 19.84375 44.070312 19.496094 44.421875 19.066406 44.421875 C 18.636719 44.421875 18.285156 44.070312 18.285156 43.640625 C 18.285156 43.210938 18.636719 42.859375 19.066406 42.859375 Z M 19.066406 42.859375 " fill-opacity="1" fill-rule="nonzero"/><path fill="#5d8bb8" d="M 12.074219 45.96875 C 13.355469 45.96875 14.402344 44.925781 14.402344 43.640625 C 14.402344 42.359375 13.355469 41.3125 12.074219 41.3125 C 10.789062 41.3125 9.746094 42.359375 9.746094 43.640625 C 9.746094 44.925781 10.789062 45.96875 12.074219 45.96875 Z M 12.074219 42.859375 C 12.503906 42.859375 12.851562 43.210938 12.851562 43.640625 C 12.851562 44.070312 12.503906 44.421875 12.074219 44.421875 C 11.644531 44.421875 11.292969 44.070312 11.292969 43.640625 C 11.292969 43.210938 11.644531 42.859375 12.074219 42.859375 Z M 12.074219 42.859375 " fill-opacity="1" fill-rule="nonzero"/><path fill="#5d8bb8" d="M 19.066406 53.746094 C 17.78125 53.746094 16.738281 54.789062 16.738281 56.074219 C 16.738281 57.355469 17.78125 58.398438 19.066406 58.398438 C 20.347656 58.398438 21.394531 57.355469 21.394531 56.074219 C 21.394531 54.789062 20.347656 53.746094 19.066406 53.746094 Z M 19.066406 56.851562 C 18.636719 56.851562 18.285156 56.503906 18.285156 56.074219 C 18.285156 55.640625 18.636719 55.292969 19.066406 55.292969 C 19.496094 55.292969 19.84375 55.640625 19.84375 56.074219 C 19.84375 56.503906 19.496094 56.851562 19.066406 56.851562 Z M 19.066406 56.851562 " fill-opacity="1" fill-rule="nonzero"/><path fill="#5d8bb8" d="M 12.074219 53.746094 C 10.789062 53.746094 9.746094 54.789062 9.746094 56.074219 C 9.746094 57.355469 10.789062 58.398438 12.074219 58.398438 C 13.355469 58.398438 14.402344 57.355469 14.402344 56.074219 C 14.402344 54.789062 13.355469 53.746094 12.074219 53.746094 Z M 12.074219 56.851562 C 11.644531 56.851562 11.292969 56.503906 11.292969 56.074219 C 11.292969 55.640625 11.644531 55.292969 12.074219 55.292969 C 12.503906 55.292969 12.851562 55.640625 12.851562 56.074219 C 12.851562 56.503906 12.503906 56.851562 12.074219 56.851562 Z M 12.074219 56.851562 " fill-opacity="1" fill-rule="nonzero"/><path fill="#5d8bb8" d="M 12.851562 49.855469 C 12.851562 51.140625 13.898438 52.183594 15.179688 52.183594 C 16.464844 52.183594 17.507812 51.140625 17.507812 49.855469 C 17.507812 48.574219 16.464844 47.527344 15.179688 47.527344 C 13.898438 47.527344 12.851562 48.574219 12.851562 49.855469 Z M 15.179688 49.078125 C 15.609375 49.078125 15.960938 49.425781 15.960938 49.855469 C 15.960938 50.285156 15.609375 50.636719 15.179688 50.636719 C 14.75 50.636719 14.402344 50.285156 14.402344 49.855469 C 14.402344 49.425781 14.75 49.078125 15.179688 49.078125 Z M 15.179688 49.078125 " fill-opacity="1" fill-rule="nonzero"/><path fill="#5d8bb8" d="M 8.964844 52.183594 C 10.25 52.183594 11.292969 51.140625 11.292969 49.855469 C 11.292969 48.574219 10.25 47.527344 8.964844 47.527344 C 7.679688 47.527344 6.636719 48.574219 6.636719 49.855469 C 6.636719 51.140625 7.679688 52.183594 8.964844 52.183594 Z M 8.964844 49.078125 C 9.394531 49.078125 9.746094 49.425781 9.746094 49.855469 C 9.746094 50.285156 9.394531 50.636719 8.964844 50.636719 C 8.535156 50.636719 8.183594 50.285156 8.183594 49.855469 C 8.183594 49.425781 8.535156 49.078125 8.964844 49.078125 Z M 8.964844 49.078125 " fill-opacity="1" fill-rule="nonzero"/><g clip-path="url(#8dd8a501dc)"><path fill="#5d8bb8" d="M 3.136719 77.824219 C 1.425781 77.824219 0.03125 76.429688 0.03125 74.71875 C 0.03125 73.007812 1.425781 71.613281 3.136719 71.613281 L 27.222656 71.613281 C 28.933594 71.613281 30.328125 73.007812 30.328125 74.71875 C 30.328125 76.429688 28.933594 77.824219 27.222656 77.824219 Z M 3.136719 77.824219 " fill-opacity="1" fill-rule="nonzero"/></g><g fill="#5d8bb8" fill-opacity="1"><g transform="translate(43.091405, 77.592945)"><g><path d="M 33.28125 -0.953125 L 32.4375 -1.6875 L 30.96875 -3.328125 L 22.21875 -12.015625 L 21.265625 -12.640625 L 20.53125 -13.484375 L 16.53125 -17.3125 L 15.796875 -18.28125 L 15.0625 -18.5625 L 14.671875 -17.59375 L 14.546875 -16.46875 L 14.5 -2.203125 L 13.9375 -0.453125 L 12.796875 0.109375 L 11.625 0.171875 L 9.421875 0 L 8.171875 0.109375 L 5.859375 0 L 4.6875 -0.390625 L 4.171875 -1.46875 L 4.0625 -6.203125 L 4.171875 -7.28125 L 4.0625 -16.53125 L 4.234375 -17.484375 L 4.125 -19.796875 L 4.171875 -20.75 L 4.171875 -37.84375 L 4.6875 -38.921875 L 5.984375 -39.484375 L 7.671875 -39.09375 L 8.96875 -38.40625 L 9.8125 -37.734375 L 20.921875 -26.515625 L 22.5 -25.265625 L 26.515625 -21.265625 L 27.359375 -20.875 L 27.703125 -21.828125 L 27.8125 -31.921875 L 27.703125 -33.171875 L 27.859375 -35.53125 L 27.703125 -36.4375 L 27.75 -37.625 L 28.375 -38.8125 L 29.4375 -39.421875 L 36.4375 -39.484375 L 37.5625 -38.859375 L 38.125 -37.734375 L 38.296875 -29.890625 L 38.125 -28.546875 L 38.125 -22.953125 L 38.296875 -22 L 38.1875 -1.40625 L 37.625 -0.28125 L 36.375 0.109375 L 34.796875 -0.0625 Z M 33.28125 -0.953125 "/></g></g></g><g fill="#5d8bb8" fill-opacity="1"><g transform="translate(85.620565, 77.592945)"><g><path d="M 4.125 -1.578125 L 4.28125 -6.203125 L 4.125 -7.21875 L 4.125 -24.078125 L 4.234375 -25.21875 L 4.171875 -26.5625 L 4.28125 -28.703125 L 4.0625 -31.03125 L 4.171875 -32.15625 L 4.0625 -36.546875 L 4.171875 -37.796875 L 4.734375 -38.921875 L 5.984375 -39.484375 L 11.5625 -39.375 L 12.796875 -39.484375 L 13.984375 -38.859375 L 14.5 -37.796875 L 14.609375 -35.703125 L 14.5 -34.46875 L 14.4375 -30.0625 L 14.5 -29.046875 L 14.5 -27.859375 L 14.546875 -26.625 L 15.109375 -25.546875 L 16.1875 -25.046875 L 19.515625 -24.984375 L 20.53125 -25.09375 L 21.71875 -24.984375 L 23.921875 -25.21875 L 24.984375 -25.046875 L 26.109375 -25.671875 L 26.734375 -26.796875 L 26.796875 -31.1875 L 26.625 -32.265625 L 26.734375 -34.578125 L 26.625 -35.53125 L 26.6875 -37.671875 L 27.25 -39.03125 L 28.875 -39.421875 L 35.359375 -39.375 L 36.5 -38.921875 L 37 -37.734375 L 36.953125 -9.421875 L 37.109375 -8.515625 L 36.953125 -6.71875 L 37.0625 -1.578125 L 36.375 -0.625 L 35.3125 0.109375 L 33 -0.0625 L 31.875 0.0625 L 28.9375 0.0625 L 27.296875 -0.671875 L 26.6875 -1.578125 L 26.625 -14.046875 L 26.0625 -15.109375 L 24.984375 -15.734375 L 23.96875 -15.734375 L 22.78125 -15.90625 L 16.125 -15.84375 L 14.953125 -15.109375 L 14.4375 -13.9375 L 14.4375 -3.953125 L 14.546875 -2.703125 L 14.4375 -1.640625 L 13.984375 -0.5625 L 12.796875 0.109375 L 10.4375 0.0625 L 9.25 0.171875 L 7 0.0625 L 5.859375 0.109375 L 4.796875 -0.5 Z M 4.125 -1.578125 "/></g></g></g><g fill="#5d8bb8" fill-opacity="1"><g transform="translate(126.90882, 77.592945)"><g><path d="M 7.5625 0.171875 L 6.546875 0.109375 L 4.796875 -0.453125 L 4.171875 -1.515625 L 4.234375 -11.953125 L 4.125 -13.03125 L 4.171875 -27.640625 L 4.0625 -28.703125 L 4.28125 -30.96875 L 4.234375 -37.796875 L 4.734375 -38.6875 L 5.921875 -39.3125 L 7.109375 -39.546875 L 8.125 -39.375 L 9.359375 -39.3125 L 12.859375 -39.546875 L 13.984375 -39.375 L 17.421875 -39.3125 L 18.671875 -39.484375 L 20.46875 -39.546875 L 22.171875 -39.484375 L 23.296875 -39.09375 L 24.421875 -39.09375 L 25.390625 -38.6875 L 27.640625 -38.015625 L 29.5 -36.78125 L 32.03125 -34.578125 L 33.390625 -32.71875 L 34.46875 -30.796875 L 35.140625 -28.703125 L 35.3125 -27.46875 L 35.53125 -26.515625 L 35.421875 -21.890625 L 35.078125 -20.984375 L 34.921875 -19.75 L 33.953125 -17.546875 L 32.765625 -15.734375 L 32.03125 -14.890625 L 31.3125 -14.15625 L 30.515625 -13.25 L 29.671875 -12.578125 L 24.3125 -10.4375 L 18.5 -9.984375 L 17.3125 -10.203125 L 16.078125 -10.09375 L 14.78125 -9.46875 L 14.265625 -8.46875 L 14.328125 -7.15625 L 14.21875 -6.09375 L 14.328125 -4 L 14.265625 -2.765625 L 14.328125 -1.640625 L 13.8125 -0.453125 L 12.640625 0 L 11.34375 0.109375 L 10.328125 0.0625 Z M 16.015625 -19.125 L 17.375 -19.234375 L 20.25 -19.171875 L 22 -19.40625 L 22.90625 -19.6875 L 23.796875 -20.359375 L 24.53125 -21.265625 L 25.046875 -22.171875 L 25.4375 -23.1875 L 25.546875 -24.703125 L 25.4375 -26.28125 L 25.265625 -27.296875 L 24.703125 -28.421875 L 23.96875 -29.15625 L 23.0625 -29.78125 L 21.9375 -30.296875 L 16.078125 -30.453125 L 14.890625 -29.890625 L 14.328125 -28.828125 L 14.328125 -26.515625 L 14.21875 -25.328125 L 14.390625 -20.75 L 14.890625 -19.796875 Z M 16.015625 -19.125 "/></g></g></g><g fill="#5d8bb8" fill-opacity="1"><g transform="translate(164.023122, 77.592945)"><g><path d="M 14.71875 0.109375 L 12.96875 0.0625 L 11.34375 -0.5 L 10.609375 -1.75 L 10.71875 -2.828125 L 10.78125 -6.09375 L 10.65625 -7.28125 L 10.71875 -11.84375 L 10.828125 -12.96875 L 10.65625 -21.375 L 10.78125 -22.953125 L 10.71875 -24.078125 L 10.78125 -25.328125 L 10.65625 -26.90625 L 10.78125 -28.703125 L 10.15625 -29.84375 L 9.078125 -30.40625 L 3.71875 -30.515625 L 2.59375 -30.40625 L 1.578125 -30.96875 L 1.078125 -31.984375 L 0.953125 -33.734375 L 1.078125 -36.546875 L 1.015625 -37.671875 L 1.6875 -38.984375 L 2.765625 -39.546875 L 6.71875 -39.3125 L 8.46875 -39.484375 L 11.78125 -39.3125 L 12.796875 -39.546875 L 14.046875 -39.421875 L 15.234375 -39.59375 L 16.296875 -39.546875 L 17.421875 -39.3125 L 22 -39.546875 L 23.0625 -39.421875 L 24.25 -39.59375 L 25.328125 -39.484375 L 28.828125 -39.484375 L 29.890625 -38.75 L 30.515625 -37.625 L 30.453125 -32.265625 L 29.78125 -31.03125 L 28.828125 -30.40625 L 27.8125 -30.453125 L 26.625 -30.296875 L 24.53125 -30.578125 L 22.34375 -30.453125 L 21.265625 -29.78125 L 20.8125 -28.09375 L 20.640625 -23.1875 L 20.8125 -22 L 20.703125 -12.921875 L 20.875 -11.671875 L 20.75 -10.65625 L 20.8125 -8.40625 L 20.703125 -7.21875 L 20.875 -5.078125 L 20.703125 -2.140625 L 20.140625 -0.5625 L 18.5 0 Z M 14.71875 0.109375 "/></g></g></g><g fill="#5d8bb8" fill-opacity="1"><g transform="translate(195.553361, 77.592945)"><g><path d="M 9.53125 -11.28125 L 9.640625 -14.890625 L 9.078125 -16.015625 L 7.84375 -16.640625 L 6.65625 -16.421875 L 5.421875 -16.359375 L 4.34375 -16.53125 L 3.265625 -16.921875 L 2.59375 -18.046875 L 2.53125 -19.296875 L 2.65625 -20.421875 L 2.65625 -22.953125 L 3.21875 -24.140625 L 4.34375 -24.703125 L 5.421875 -24.65625 L 7.78125 -24.65625 L 8.96875 -25.21875 L 9.59375 -26.28125 L 9.59375 -29.84375 L 10.09375 -31.140625 L 11.28125 -31.640625 L 12.359375 -31.59375 L 13.65625 -31.703125 L 15.90625 -31.703125 L 17.203125 -31.03125 L 17.765625 -29.328125 L 17.765625 -26.34375 L 18.21875 -25.265625 L 19.515625 -24.703125 L 20.59375 -24.65625 L 22.953125 -24.765625 L 24.03125 -24.078125 L 24.59375 -22.84375 L 24.53125 -20.53125 L 24.65625 -19.453125 L 24.65625 -18.15625 L 24.078125 -17.03125 L 22.953125 -16.53125 L 21.765625 -16.421875 L 19.578125 -16.46875 L 18.28125 -15.84375 L 17.765625 -14.21875 L 17.65625 -12.515625 L 17.765625 -11.28125 L 17.09375 -10.15625 L 15.96875 -9.59375 L 14.71875 -9.53125 L 11.28125 -9.703125 L 10.046875 -10.15625 Z M 9.53125 -11.28125 "/></g></g></g></svg>